<svg data-name="Layer 1" xmlns="http://www.w3.org/2000/svg" width="949" height="631.58881"><path d="M549.4668 110.89352c-1.97071-.06592-3.97852-.09912-5.9668-.09912v-2c2.01074 0 4.04.03369 6.0332.1001zM543.5 464.7944c-2.68848 0-5.39941-.06055-8.05859-.17969l.08984-1.998c3.98145.17871 8.05762.22265 12.06348.13086l.04492 2q-2.0625.04683-4.13965.04683zm16.31934-.7373l-.18164-1.99219c3.99609-.36328 8.02148-.86914 11.96679-1.502l.31641 1.97461c-3.98926.63969-8.06055 1.15141-12.10156 1.51958zm-36.53711-.39747c-4.03125-.45605-8.09082-1.05664-12.06641-1.78515l.36133-1.9668c3.92969.71973 7.94336 1.31348 11.92969 1.76367zm60.6084-3.46777l-.45118-1.94922c3.90039-.90429 7.81934-1.957 11.64746-3.1289l.58594 1.91211c-3.87305 1.18555-7.83691 2.25097-11.78222 3.16601zm-84.59083-.92871c-3.92187-1.00195-7.86132-2.15527-11.708-3.42676l.62695-1.89844c3.80469 1.25684 7.69922 2.39649 11.57715 3.3877zm107.90723-6.209l-.7168-1.86719c3.73731-1.4336 7.47071-3.01465 11.09473-4.69824l.8418 1.81445c-3.66504 1.70217-7.43946 3.3008-11.21976 4.751zm-131.07617-1.4502c-3.75732-1.53809-7.5044-3.22461-11.13721-5.01367l.88379-1.79492c3.59131 1.76855 7.29639 3.43652 11.01123 4.957zm153.166-8.81348l-.96485-1.75195c3.50586-1.93359 6.98926-4.01172 10.35059-6.17773l1.084 1.68164c-3.40039 2.19045-6.92285 4.29197-10.46972 6.24806zm-175.06586-1.9658c-3.50879-2.03808-6.98731-4.2207-10.33985-6.48925l1.1211-1.65625c3.31445 2.24218 6.7539 4.40136 10.22363 6.417zm195.5542-11.23242l-1.19532-1.60351c3.21094-2.39356 6.37891-4.92774 9.417-7.53321l1.30273 1.51758c-3.07328 2.63574-6.27738 5.19922-9.52445 7.61914zm-215.7642-2.4375c-3.19043-2.49219-6.33789-5.12793-9.35547-7.835l1.33593-1.48828c2.9834 2.67578 6.09571 5.28223 9.251 7.74707zm234.273-13.43359l-1.4024-1.42576c2.85547-2.8086 5.65137-5.751 8.30957-8.74707l1.4961 1.32812c-2.68848 3.02928-5.51563 6.00486-8.40327 8.84471zm-252.42627-2.85449c-2.82471-2.90528-5.584-5.94434-8.20118-9.03125l1.52539-1.293c2.5879 3.05273 5.31641 6.05664 8.10938 8.92968zm268.61181-15.39161l-1.582-1.22265c2.44531-3.167 4.81543-6.46387 7.04395-9.79785l1.66211 1.11132c-2.25301 3.37207-4.65047 6.70606-7.12411 9.90918zm-284.37842-3.20605c-2.40283-3.26074-4.72168-6.64551-6.89306-10.05859l1.6875-1.07422c2.147 3.375 4.43994 6.72168 6.81592 9.94726zm297.93311-17.08106l-1.73438-.99414c1.99415-3.47851 3.89161-7.06933 5.64063-10.6748l1.79883.87305c-1.76861 3.64648-3.68755 7.27834-5.70513 10.79589zM387.02 371.70651c-1.93359-3.55566-3.76758-7.22363-5.45117-10.90137l1.81836-.832c1.665 3.63574 3.478 7.2627 5.38965 10.77832zm321.66943-18.47949l-1.85547-.7461c1.49707-3.7207 2.88379-7.541 4.1211-11.35547l1.90234.61719c-1.25095 3.8584-2.6533 7.72266-4.16795 11.48438zm-331.80761-3.667c-1.4292-3.791-2.74317-7.67969-3.90674-11.55762l1.916-.57422c1.14991 3.834 2.44922 7.67773 3.86182 11.42676zm339.335-19.54688l-1.94141-.48437c.96973-3.88672 1.81543-7.85547 2.51465-11.7959l1.96875.34961c-.70705 3.98536-1.56252 7.99903-2.54201 11.93067zm-346.33936-3.80957c-.89258-3.94922-1.65918-7.98145-2.27783-11.98389l1.97656-.30566c.61182 3.95752 1.36963 7.94385 2.25244 11.84814zm350.59813-20.19677l-1.98829-.21386c.42676-3.97559.72168-8.02247.87793-12.02881l1.99805.07812c-.15723 4.05078-.45605 8.14356-.88769 12.16455zm-354.32618-3.8984c-.34277-4.0288-.55224-8.12744-.62255-12.18212l2-.03418c.06884 4.00976.27636 8.0625.61572 12.04638zm353.27637-20.4082c-.11328-4.00781-.36523-8.0581-.749-12.03808l1.99023-.19239c.38867 4.02539.64356 8.1211.75879 12.17383zm-2.31738-23.99707c-.65918-3.95605-1.46192-7.93359-2.3877-11.82275l1.94532-.46289c.93652 3.9331 1.749 7.95605 2.415 11.95752zm-5.585-23.45215c-1.19336-3.81836-2.53418-7.64355-3.98633-11.36865l1.86328-.72656c1.46875 3.76806 2.8252 7.63672 4.03125 11.49853zm-8.749-22.43847c-1.709-3.62305-3.56445-7.2295-5.51367-10.71924l1.7461-.97559c1.97168 3.52979 3.84765 7.17725 5.57617 10.84131zm-11.75096-21.03811c-2.19043-3.35791-4.52246-6.67871-6.92871-9.86963l1.5957-1.2041c2.43457 3.22656 4.793 6.585 7.00879 9.981zm-14.51758-19.24512c-2.62305-3.0249-5.38477-5.99853-8.209-8.83886l1.418-1.41016c2.85645 2.87256 5.64942 5.87988 8.30274 8.93848zm-17.00293-17.09814c-3.01563-2.644-6.15723-5.21582-9.33789-7.64307l1.21289-1.58984c3.2168 2.45459 6.39453 5.05517 9.44336 7.729zm-19.1748-14.63233c-3.34961-2.20947-6.81348-4.3291-10.2959-6.29931l.98437-1.74121c3.52246 1.99316 7.02539 4.13623 10.41309 6.37158zm-21.002-11.87793c-3.61816-1.73046-7.34082-3.355-11.06543-4.82958l.73633-1.85938c3.7666 1.49121 7.53223 3.13477 11.19238 4.88428zm-22.43945-8.88427c-3.81641-1.21338-7.72363-2.3086-11.61426-3.25586l.47266-1.94336c3.93554.958 7.88769 2.06592 11.74707 3.293zm-23.42578-5.70264c-3.94336-.67578-7.96387-1.22412-11.95117-1.62939l.20312-1.99024c4.03223.41016 8.09863.96485 12.08594 1.648zM367.73926 277.5361l-1.99707-.10352c.10449-2.0166.24365-4.0415.41357-6.019l1.99219.1709c-.16748 1.95504-.30518 3.95748-.40869 5.95162z" fill="#e6e6e6"/><path fill="#3f3d56" d="M696 629.589H191v-225l252.5 113.5 252.5-113.5v225z"/><path fill="#6c63ff" d="M191 404.589h505l-252 130-253-130z"/><circle cx="444" cy="534.58881" r="21" fill="#e6e6e6"/><path d="M66.14648 629.11029c-.22949-.375-5.64062-9.41016-7.5166-28.17188-1.7207-17.21289-.61425-46.22656 14.43262-86.69824 28.50586-76.6709-6.56934-138.5332-6.92773-139.14941l1.73046-1.00391c.09082.15625 9.14161 15.92871 14.48829 41.044a179.06122 179.06122 0 01-7.416 99.80664c-28.457 76.54-7.30078 112.77344-7.084 113.13086z" fill="#3f3d56"/><circle cx="55" cy="357.58881" r="13" fill="#6c63ff"/><circle cx="96" cy="405.58881" r="13" fill="#6c63ff"/><circle cx="68" cy="437.58881" r="13" fill="#6c63ff"/><circle cx="102" cy="464.58881" r="13" fill="#6c63ff"/><circle cx="58" cy="506.58881" r="13" fill="#6c63ff"/><path d="M74 629.5888s-13-32 26-56zM58.012 629.00834S52.09558 594.979 6.3035 595.27066zM278.5 138.0888a122.46646 122.46646 0 0126.036-75.68011 122.99721 122.99721 0 1015.9181 239.93036A150.08622 150.08622 0 00394.5 314.0888l-39.29761-27.96173a123.68485 123.68485 0 0028.249-26.35992A123.02354 123.02354 0 01278.5 138.0888z" fill="#3f3d56"/><path d="M557.5 125.0888a123.00171 123.00171 0 00-219.964-75.68011 122.9959 122.9959 0 0178.91541 197.35846 123.79221 123.79221 0 0052.00268-3.4281A150.08622 150.08622 0 00542.5 255.0888l-39.29761-27.96173A122.87662 122.87662 0 00557.5 125.0888z" fill="#6c63ff"/><path d="M320.536 55.40869a123.01079 123.01079 0 0078.91541 197.35846A122.9959 122.9959 0 00320.536 55.40869z" fill="#e6e6e6"/><path fill="#3f3d56" d="M0 629.58881h949v2H0z"/><path d="M806.14463 160.54693l-5.93271 39.48168-67.80585 45.86247S696.7556 262.97475 699 273.5888c2.00065 9.46133 29.51033 8.34147 38.16749-6.2891l81.06651-36.85394 27.11218-53.6743zM806.5 558.589l3 42 29-2-5-40h-27z" fill="#ffb8b8"/><path d="M814.5 587.5888s-4-15-8-14l-6 11s-27 25-35 26c0 0-26 8 0 20h30s20-1 24 0 27 1 28-5-3-18-3-18-3.68783-29.5026-7.84391-23.7513a78.52866 78.52866 0 01-7.15609 8.7513z" fill="#2f2e41"/><path fill="#ffb8b8" d="M881.5 559.089l3 42 29-2-5-40h-27z"/><path d="M889.5 588.0888s-4-15-8-14l-6 11s-27 25-35 26c0 0-26 8 0 20h30s20-2 24-1 27 1 28-5-3-17-3-17-3.68783-29.5026-7.84391-23.7513a78.52866 78.52866 0 01-7.15609 8.7513zM767.5 301.0888l-5 7v14l32 119 6 26s0 100 6 100 33 3 33-3-2-142-2-142l27 51s12 90 16 91 32 0 34-6l-6-57s1-64-16-78c0 0-3-17-6-24s-8-11-5-16-4-60-4-60 2-17-2-22-108 0-108 0z" fill="#2f2e41"/><circle cx="831.5" cy="43.08881" r="31" fill="#ffb8b8"/><path d="M851 61.5888l-2 20 8 7-51 24c12.563-21.46356 16.28369-41.00753 10-55z" fill="#ffb8b8"/><path d="M816 91.5888s-8 16 2 12l31-22s34 13 46 28l-10 106-8 75s5 9 4 10-2-1-1 2 4 0 1 3-6 0-3 3 0 4 0 4-4-24-39-6-50 23-76 1l30-114 2.42232-42.99624a177.10707 177.10707 0 017.61071-42.31482c2.29335-7.4234 6.2885-14.71847 12.967-18.68894z" fill="#d0cde1"/><path d="M869.5 179.0888l15 37-35 74s-8 9-3 20a132.19286 132.19286 0 009 17s9-4 9-21l51-73-4-60z" fill="#ffb8b8"/><path d="M867.5 113.0888s-14 14-8 36 11 39 11 39 24-18 44-7c0 0-3-65-20-71s-27 3-27 3z" fill="#d0cde1"/><path d="M856.984 16.49528S847.51254-4.02622 829.3589.70951s-28.41439 11.83933-29.20368 18.94293.39464 17.759.39464 17.759 1.97322-14.60184 14.60184-11.44468 32.36084.78929 32.36084.78929l3.15715 28.41439s5.38385-5.73878 9.33029-2.58163 9.61266-29.77922-3.01598-36.09353z" fill="#2f2e41"/><path d="M700.15812 239.51087l18.457-4.27462a4.02745 4.02745 0 014.53638 2.17422l18.90626 39.206a3.255 3.255 0 01-2.04236 4.545l-18.7574 5.32921a4.30027 4.30027 0 01-5.125-2.4361l-12.06363-28.02093-.36753.2036-2.29605-5.3088.38167-.19511-3.36746-7.82165a2.47967 2.47967 0 011.73812-3.40082z" fill="#3f3d56"/><path d="M716.39184 236.69073l2.15449-.499a2.78328 2.78328 0 013.1433 1.52l18.45377 38.95521a1.72462 1.72462 0 01-1.0604 2.38946l-18.62551 5.61964a2.23355 2.23355 0 01-2.69733-1.25664l-17.45986-40.63778a1.9563 1.9563 0 011.356-2.67811l2.04387-.47336a.92326.92326 0 011.02269.46447.81507.81507 0 00.90286.41005l9.703-2.2472a1.39328 1.39328 0 001.06311-1.56669z" fill="#6c63ff"/></svg>